<?xml version="1.0" standalone="no"?>
<!DOCTYPE svg PUBLIC "-//W3C//DTD SVG 1.1//EN" "http://www.w3.org/Graphics/SVG/1.1/DTD/svg11.dtd" >
<svg xmlns="http://www.w3.org/2000/svg">
<metadata>Generated by IcoMoon</metadata>
<defs>
<font id="icomoon" horiz-adv-x="1024">
<font-face units-per-em="1024" ascent="960" descent="-64" />
<missing-glyph horiz-adv-x="1024" />
<glyph unicode="&#x20;" horiz-adv-x="512" d="" />
<glyph unicode="&#xe900;" glyph-name="facebook" d="M704 768v128h-162.909c-89.967 0-157.091-72.943-157.091-162.909v-157.091h-128v-128h128v-448h128v448h192v128h-192v128c0 0 0 64 64 64h128z" />
<glyph unicode="&#xe901;" glyph-name="twitter" d="M868.272 620.741c11.611-264.693-181.216-559.813-522.48-559.813-103.824 0-200.443 31.173-281.792 84.56 97.515-11.76 194.843 15.941 272.16 77.915-80.453 1.531-148.363 55.925-171.733 130.704 28.784-5.637 57.12-3.995 82.992 3.211-88.368 18.181-149.408 99.717-147.429 186.928 24.789-14.112 53.125-22.587 83.291-23.557-81.872 56.037-105.056 166.693-56.896 251.253 90.645-113.829 226.091-188.757 378.896-196.597-26.843 117.712 60.405 231.056 179.051 231.056 52.864 0 100.651-22.848 134.176-59.435 41.888 8.437 81.2 24.117 116.741 45.696-13.739-43.979-42.859-80.864-80.827-104.123 37.184 4.517 72.613 14.635 105.579 29.605-24.64-37.707-55.813-70.859-91.728-97.403z" />
<glyph unicode="&#xe902;" glyph-name="language" d="M1024 416c0 265.097-214.903 480-480 480s-480-214.903-480-480c0-265.097 214.903-480 480-480s480 214.903 480 480zM128 416c0 229.75 186.25 416 416 416s416-186.25 416-416c0-229.75-186.25-416-416-416s-416 186.25-416 416zM512 255.785v128.215h-416v64h416v124.747c-76.741 5.205-152.899 23.242-227.118 51.58-29.713 11.345-56.495 23.518-79.956 35.734-14.295 7.443-24.461 13.35-30.106 16.942l34.36 53.994c4.133-2.63 12.708-7.612 25.302-14.169 21.353-11.118 45.905-22.278 73.229-32.71 66.956-25.565 135.375-41.974 204.289-46.997v226.88h64v-228.209c102.514 3.301 205.461 33.156 305.689 96.83l-2.869-1.625 31.491-55.619 2.869 1.625c-109.947-69.967-223.787-102.459-337.18-105.571v-123.432h416v-64h-416v-126.833c112.966-2.971 225.992-35.064 334.311-104.101l2.869-1.624-31.491-55.619-2.869 1.625c-98.609 62.751-200.74 92.205-302.82 95.364v-224.812h-64v223.408c-68.827-5.086-137.29-21.5-204.289-47.081-27.324-10.433-51.876-21.593-73.229-32.71-12.594-6.557-21.168-11.539-25.302-14.169l-34.36 53.994c5.644 3.592 15.811 9.499 30.106 16.942 23.462 12.216 50.243 24.389 79.956 35.734 74.263 28.355 150.469 46.397 227.118 51.668zM832 416c0 262.754-124.14 480-288 480s-288-217.246-288-480c0-262.754 124.14-480 288-480s288 217.246 288 480zM320 416c0 232.093 105.090 416 224 416s224-183.907 224-416c0-232.093-105.090-416-224-416s-224 183.907-224 416z" />
<glyph unicode="&#xe903;" glyph-name="search" d="M761.351 512.099c0-173.541-140.722-314.263-314.263-314.263s-314.263 140.722-314.263 314.263c0 173.541 140.722 314.263 314.263 314.263s314.263-140.722 314.263-314.263v0zM831.187 512.099c0 212.11-171.989 384.099-384.099 384.099s-384.099-171.989-384.099-384.099c0-212.11 171.989-384.099 384.099-384.099s384.099 171.989 384.099 384.099v0zM716.204 288.246c-12.274 12.241-32.065 12.131-44.204-0.246s-12.030-32.333 0.244-44.574l234.518-234.317c12.274-12.241 32.065-12.131 44.204 0.246s12.030 32.333-0.244 44.574l-234.518 234.317z" />
<glyph unicode="&#xe904;" glyph-name="share" d="M601.935 690.743v0 0 0 0 0c23.373-30.83 60.393-50.743 102.065-50.743 70.692 0 128 57.308 128 128s-57.308 128-128 128c-70.692 0-128-57.308-128-128 0-5.286 0.32-10.498 0.943-15.616l-252.366-196.285c-19.823 12.602-43.347 19.901-68.577 19.901-70.692 0-128-57.308-128-128s57.308-128 128-128c25.229 0 48.754 7.299 68.577 19.901l252.366-196.285c-0.623-5.118-0.943-10.33-0.943-15.616 0-70.692 57.308-128 128-128s128 57.308 128 128c0 70.692-57.308 128-128 128-41.672 0-78.692-19.913-102.065-50.743l-233.464 181.583c9.902 18.172 15.529 39.009 15.529 61.16s-5.627 42.988-15.529 61.16l233.464 181.583zM192 448c0 35.346 28.654 64 64 64s64-28.654 64-64c0-35.346-28.654-64-64-64s-64 28.654-64 64v0 0 0 0zM640 768c0 35.346 28.654 64 64 64s64-28.654 64-64c0-35.346-28.654-64-64-64s-64 28.654-64 64v0 0 0 0zM640 128c0 35.346 28.654 64 64 64s64-28.654 64-64c0-35.346-28.654-64-64-64s-64 28.654-64 64v0 0 0 0z" />
<glyph unicode="&#xe905;" glyph-name="download" d="M320 448v384h384v-384h256l-448-448-448 448z" />
<glyph unicode="&#xe906;" glyph-name="sourceforge" d="M352 256c17.664 0 32-14.336 32-32v-64c0-17.664-14.336-32-32-32h-256c-17.664 0-32-14.336-32-32v-64c0-17.664 14.336-32 32-32h320c52.992 0 96 43.008 96 96v192c0 52.992-43.008 96-96 96h-192c-17.664 0-32 14.336-32 32v64c0 17.664 14.336 32 32 32h288v128h-352c-52.992 0-96-43.008-96-96v-192c0-52.992 43.008-96 96-96h192zM960 864c0 17.664-14.336 32-32 32h-256c-52.992 0-96-43.008-96-96v-160h-64v-128h64v-417.088c0-11.392 13.76-17.152 21.824-9.088l96.832 96.832c5.952 5.952 9.344 14.144 9.344 22.592v306.752h224c17.664 0 32 14.336 32 32v64c0 17.664-14.336 32-32 32h-224v128h224c17.664 0 32 14.336 32 32v64z" />
<glyph unicode="&#xe907;" glyph-name="iso-repository" d="M611.513 437.216c-29.434 19.623-69.106 11.731-88.729-17.703-19.623-29.328-11.731-69.106 17.703-88.729 29.328-19.623 69.106-11.731 88.729 17.703 19.623 29.328 11.731 69.106-17.703 88.729zM500.673 7.579v0 0 0c40.16-8.136 81.186-9.717 121.471-4.872 85.376 10.176 167.36 48.896 230.464 114.304 8.96 9.344 17.6 19.2 25.792 29.632s15.744 21.12 22.72 32.064c55.552 87.68 71.488 191.104 50.56 287.232-18.304 84.096-64.896 162.56-137.856 219.904-72.896 57.344-160.128 84.096-246.208 82.048-18.728-0.479-37.231-3.195-55.616-6.475v102.584c0 17.664-14.336 32-32 32h-384c-17.664 0-32-14.336-32-32v-832c0-17.664 14.336-32 32-32h384c7.879 0 15.095 2.852 20.673 7.579zM512 71.552v131.241c47.175-16.456 98.954-13.605 144 7.018l53.632-115.264c-61.784-28.255-131.207-36.182-197.632-22.995v0 0 0zM512 274.958v218.525c43.989 25.63 100.829 23.894 143.232-9.432 55.296-43.456 64.96-123.648 21.888-179.072-40.132-50.634-110.976-62.192-165.12-30.021v0 0 0zM512 563.763v131.491c89.103 18.817 185.173 0.854 262.272-59.715 34.688-27.264 62.208-60.352 82.304-96.704 36.736-66.688 47.168-144.512 32.064-218.752l-124.544 25.216c14.336 69.12-9.28 143.616-68.48 190.144-53.953 42.423-123.428 50.181-183.616 28.32v0 0 0zM128 704v64h320v-64h-320zM128 576v64h320v-64h-320zM384 448v64h64v-64h-64z" />
<glyph unicode="&#xe908;" glyph-name="mega" d="M768 204.8c0-7.040-5.76-12.8-12.8-12.8h-101.376c-7.104 0-13.824 5.76-13.824 12.8v225.856l-120.768-172.224c-4.352-3.072-10.176-3.072-14.464 0.064l-120.768 175.744v-229.44c0-7.040-5.76-12.8-12.8-12.8h-102.4c-7.040 0-12.8 5.76-12.8 12.8v486.4c0 7.040 5.76 12.8 12.8 12.8h77.824c2.56-0.832 4.928-1.6 7.552-2.496l156.358-253.504 163.962 253.568c2.176 1.6 4.736 2.432 7.424 2.432h73.28c7.040 0 12.8-5.76 12.8-12.8v-486.4zM513.466 895.987c-247.408 0-448-200.592-448-448s200.592-448 448-448c247.408 0 448 200.592 448 448s-200.592 448-448 448v0z" />
<glyph unicode="&#xe909;" glyph-name="baidu-cloud" d="M113.974 322.501c0 75.394 61.375 136.769 136.769 136.769 75.451 0 136.769-61.375 136.769-136.769 0-37.327-15.045-71.12-39.378-95.795-0.285-0.342-0.684-0.798-0.969-1.14-24.789-24.618-58.811-39.834-96.422-39.834-75.394 0-136.769 61.318-136.769 136.769v0zM514.194 754.862c75.394 0 136.769-61.318 136.769-136.769 0-75.394-61.375-136.769-136.769-136.769s-136.769 61.375-136.769 136.769c0 75.451 61.375 136.769 136.769 136.769v0zM967.013 265.514c31.457 0 56.987 25.53 56.987 56.987 0 138.251-112.492 250.743-250.743 250.743-4.445 0-8.605-1.083-12.993-1.311 2.792 15.045 4.673 30.374 4.673 46.159 0 138.308-112.492 250.743-250.743 250.743s-250.743-112.435-250.743-250.743c0-15.956 1.824-31.457 4.73-46.615-5.87 0.399-11.454 1.767-17.438 1.767-138.251 0-250.743-112.492-250.743-250.743s112.492-250.743 250.743-250.743c70.265 0 133.692 29.234 179.281 75.964l0.171-0.171c0 0 234.787 259.405 245.329 270.631 25.929 26.499 60.634 41.088 97.733 41.088 75.394 0 136.769-61.375 136.769-136.769 0-31.457 25.53-56.987 56.987-56.987v0zM960 192c-35.328 0-64-28.672-64-64s28.672-64 64-64c35.328 0 64 28.672 64 64s-28.672 64-64 64z" />
<glyph unicode="&#xe90a;" glyph-name="arrow-left" d="M264.322 426.474c-11.096 12.205-11.096 30.846 0 43.051l384 352c11.888 13.077 32.127 14.041 45.204 2.153s14.041-32.127 2.153-45.204l-365.534-329.261 365.534-331.688c11.888-13.077 10.924-33.315-2.153-45.204s-33.315-10.924-45.204 2.153l-384 352z" />
<glyph unicode="&#xe90b;" glyph-name="arrow-right" d="M695.678 426.474c11.096 12.205 11.096 30.846 0 43.051l-384 352c-11.888 13.077-32.127 14.041-45.204 2.153s-14.041-32.127-2.153-45.204l365.534-329.261-365.534-331.688c-11.888-13.077-10.924-33.315 2.153-45.204s33.315-10.924 45.204 2.153l384 352z" />
<glyph unicode="&#xe90c;" glyph-name="arrow-up" d="M490.474 631.678c12.205 11.096 30.846 11.096 43.051 0l352-320c13.077-11.888 14.041-32.127 2.153-45.204s-32.127-14.041-45.204-2.153l-329.261 301.534-331.688-301.534c-13.077-11.888-33.315-10.924-45.204 2.153s-10.924 33.315 2.153 45.204l352 320z" />
<glyph unicode="&#xe90d;" glyph-name="arrow-down" d="M138.474 584.322l352-320c12.205-11.096 30.846-11.096 43.051 0l352 320c13.077 11.888 14.041 32.127 2.153 45.204s-32.127 14.041-45.204 2.153l-352-320h43.051l-352 320c-13.077 11.888-33.315 10.924-45.204-2.153s-10.924-33.315 2.153-45.204v0z" />
<glyph unicode="&#xe90e;" glyph-name="Wechat" d="M271.955 575.312c-26.496 0-48 21.504-48 48s21.504 48 48 48c26.496 0 48-21.504 48-48s-21.504-48-48-48zM495.283 672.368c26.496 0 48-21.504 48-48 0-26.528-21.504-48-48-48-26.528 0-48 21.472-48 48 0 26.496 21.472 48 48 48zM387.379 332.176c0 140.48 131.744 254.784 293.696 254.784 4.64 0 9.152-0.416 13.76-0.608-31.584 122.048-159.072 213.376-311.648 213.376-176.288 0-319.2-121.888-319.2-272.288 0-84.832 45.536-160.576 116.832-210.496l-20.832-102.432 103.488 60.512c36.992-12.768 77.376-19.872 119.712-19.872 5.984 0 11.904 0.16 17.792 0.448-8.8 24.192-13.6 49.888-13.6 76.576zM447.264 318.157c0-120.512 114.528-218.208 255.776-218.208 33.952 0 66.304 5.696 95.936 15.936l96.512-50.88-27.136 86.688c55.328 40.032 90.464 99.744 90.464 166.464 0 120.512-114.496 218.176-255.776 218.176-141.248 0-255.776-97.664-255.776-218.176zM573.664 397.133c0 22.080 17.92 40 40 40s40-17.92 40-40c0-22.080-17.92-40-40-40s-40 17.92-40 40zM749.568 397.133c0 22.080 17.888 40 40 40 22.080 0 40-17.92 40-40s-17.92-40-40-40c-22.112 0-40 17.92-40 40z" />
<glyph unicode="&#xe90f;" glyph-name="Sina-weibo" d="M822.995 576.806c-0.576-11.008-9.632-20.256-21.216-21.344-13.088-1.216-24.736 7.936-26.016 20.608 0 0 15.584 94.272-90.272 72.128-13.056-1.248-24.544 8.032-25.792 20.608-1.28 12.768 8.192 24 21.248 25.216 0 0 147.616 24.8 142.112-114.752 0.096-0.896 0.064-1.632-0.064-2.464zM953.325 550.038h-0.224c-3.904-12.736-14.368-23.296-30.176-24.768-18.912-1.792-35.328 11.456-37.152 29.824-1.6 15.904 3.616 34.272 3.616 34.272 1.312 6.88 13.184 50.784-21.568 110.272-60.768 80.288-148.832 69.664-178.208 66.048-13.408-1.664-30.336-9.888-30.336-9.888-19.040-1.792-35.776 11.904-37.6 30.176-1.536 15.296 7.744 29.312 21.792 34.624 0 0 0.256 0.576 0.768 0.704 1.024 0.288 1.952 1.44 3.104 1.664 14.368 4.096 65.664 12.608 117.664 5.824 93.056-12.064 226.432-75.104 188.32-278.752zM129.152 288.018c-8.558 109.351 113.416 208.168 272.455 220.726s294.929-65.92 303.488-175.271c8.558-109.351-113.416-208.168-272.455-220.726s-294.929 65.92-303.488 175.271v0 0zM712.328 472.839c0 0 34.19 58.98-6.766 101.839-50.763 53.12-174.155-6.733-174.155-6.733-47.134-15.311-34.615 6.96-27.98 44.866 0 44.672-14.611 120.29-140.128 75.618-125.419-44.866-233.090-202.188-233.090-202.188-74.886-104.525-64.949-185.291-64.949-185.291 0-172.86 185.596-240.289 340.727-238.864 148.692 1.36 348.278 53.444 408.945 188.236 60.667 135.019-49.553 188.43-84.626 195.746-34.975 7.089-17.978 26.771-17.978 26.771v0 0zM435.737 317.199c-15.891-6.284-33.617 1.17-39.593 16.646-5.976 15.51 2.036 33.192 17.96 39.476 15.891 6.284 33.617-1.17 39.593-16.646 5.976-15.51-2.070-33.192-17.96-39.476zM338.158 217.657c-37.59-2.908-69.972 19.487-72.375 50.005-2.37 30.518 26.139 57.626 63.729 60.534s69.972-19.454 72.375-50.005c2.37-30.518-26.173-57.626-63.729-60.534zM541.329 322.614c-15.824 69.058-99.115 112.845-186.046 97.77-86.897-15.075-144.55-83.263-128.726-152.321s99.115-112.812 186.046-97.737c86.897 15.042 144.55 83.23 128.726 152.288z" />
<glyph unicode="&#xe910;" glyph-name="mailing-list" d="M529.067 768c84.821 0 153.6-68.779 153.6-153.6s-68.779-153.6-153.6-153.6c-84.821 0-153.6 68.779-153.6 153.6s68.779 153.6 153.6 153.6v0zM750.933 128h-477.867c-18.842 0-34.133 14.781-34.133 33.034v29.562c0 114.675 113.937 201.938 232.311 201.938h82.364c133.461 0 231.458-99.2 231.458-228.491v-3.009c0-18.253-15.292-33.034-34.133-33.034v0zM204.8 392.533c56.559 0 102.4 45.841 102.4 102.4s-45.841 102.4-102.4 102.4c-56.559 0-102.4-45.841-102.4-102.4s45.841-102.4 102.4-102.4v0zM238.933 358.4l-101.854-0.067c-75.742-0.067-137.079-59.937-137.079-133.752v-15.941c0-9.185 7.646-16.64 17.067-16.64h153.6v29.719c0 53.215 26.146 100.805 68.267 136.681v0zM819.2 392.533c-56.559 0-102.4 45.841-102.4 102.4s45.841 102.4 102.4 102.4c56.559 0 102.4-45.841 102.4-102.4s-45.841-102.4-102.4-102.4v0zM785.067 358.4l101.854-0.067c75.742-0.067 137.079-59.937 137.079-133.752v-15.941c0-9.185-7.646-16.64-17.067-16.64h-153.6v29.719c0 53.215-26.146 100.805-68.267 136.681v0z" />
<glyph unicode="&#xe911;" glyph-name="IRC" d="M512 768c-212.064 0-384-145.9-384-325.895 0-179.963 171.936-325.863 384-325.863 50.944 0 99.52 8.5 144.032 23.781l144.896-76.022-40.768 129.505c83.072 59.786 135.84 148.956 135.84 248.6 0 179.995-171.936 325.895-384 325.895zM532.571 320h-96l-20.571-96h-64l20.571 96h-84.571v64h98.286l27.429 128h-61.714v64h75.429l20.571 96h64l-20.571-96h96l20.571 96h64l-20.571-96h84.571v-64h-98.286l-27.429-128h61.714v-64h-75.429l-20.571-96h-64l20.571 96zM546.286 384h-96l27.429 128h96l-27.429-128z" />
<glyph unicode="&#xe912;" glyph-name="menu-button" d="M864 704c17.673 0 32 14.327 32 32s-14.327 32-32 32h-704c-17.673 0-32-14.327-32-32s14.327-32 32-32h704zM864 384c17.673 0 32 14.327 32 32s-14.327 32-32 32h-704c-17.673 0-32-14.327-32-32s14.327-32 32-32h704zM864 64c17.673 0 32 14.327 32 32s-14.327 32-32 32h-704c-17.673 0-32-14.327-32-32s14.327-32 32-32h704z" />
<glyph unicode="&#xe913;" glyph-name="delete" d="M511.763 400.459l-328.111-328.111c-12.497-12.497-32.758-12.497-45.255 0s-12.497 32.758 0 45.255l328.111 328.111-330.397 330.397c-12.497 12.497-12.497 32.758 0 45.255s32.758 12.497 45.255 0l330.397-330.397 330.634 330.634c12.497 12.497 32.758 12.497 45.255 0s12.497-32.758 0-45.255l-330.634-330.634 328.348-328.348c12.497-12.497 12.497-32.758 0-45.255s-32.758-12.497-45.255 0l-328.348 328.348z" />
<glyph unicode="" glyph-name="delete" d="M511.763 400.459l-328.111-328.111c-12.497-12.497-32.758-12.497-45.255 0s-12.497 32.758 0 45.255l328.111 328.111-330.397 330.397c-12.497 12.497-12.497 32.758 0 45.255s32.758 12.497 45.255 0l330.397-330.397 330.634 330.634c12.497 12.497 32.758 12.497 45.255 0s12.497-32.758 0-45.255l-330.634-330.634 328.348-328.348c12.497-12.497 12.497-32.758 0-45.255s-32.758-12.497-45.255 0l-328.348 328.348z" />
<glyph unicode="wechat" glyph-name="Wechat" d="M271.955 575.312c-26.496 0-48 21.504-48 48s21.504 48 48 48c26.496 0 48-21.504 48-48s-21.504-48-48-48zM495.283 672.368c26.496 0 48-21.504 48-48 0-26.528-21.504-48-48-48-26.528 0-48 21.472-48 48 0 26.496 21.472 48 48 48zM387.379 332.176c0 140.48 131.744 254.784 293.696 254.784 4.64 0 9.152-0.416 13.76-0.608-31.584 122.048-159.072 213.376-311.648 213.376-176.288 0-319.2-121.888-319.2-272.288 0-84.832 45.536-160.576 116.832-210.496l-20.832-102.432 103.488 60.512c36.992-12.768 77.376-19.872 119.712-19.872 5.984 0 11.904 0.16 17.792 0.448-8.8 24.192-13.6 49.888-13.6 76.576zM447.264 318.157c0-120.512 114.528-218.208 255.776-218.208 33.952 0 66.304 5.696 95.936 15.936l96.512-50.88-27.136 86.688c55.328 40.032 90.464 99.744 90.464 166.464 0 120.512-114.496 218.176-255.776 218.176-141.248 0-255.776-97.664-255.776-218.176zM573.664 397.133c0 22.080 17.92 40 40 40s40-17.92 40-40c0-22.080-17.92-40-40-40s-40 17.92-40 40zM749.568 397.133c0 22.080 17.888 40 40 40 22.080 0 40-17.92 40-40s-17.92-40-40-40c-22.112 0-40 17.92-40 40z" />
<glyph unicode="twitter" glyph-name="twitter" d="M868.272 620.741c11.611-264.693-181.216-559.813-522.48-559.813-103.824 0-200.443 31.173-281.792 84.56 97.515-11.76 194.843 15.941 272.16 77.915-80.453 1.531-148.363 55.925-171.733 130.704 28.784-5.637 57.12-3.995 82.992 3.211-88.368 18.181-149.408 99.717-147.429 186.928 24.789-14.112 53.125-22.587 83.291-23.557-81.872 56.037-105.056 166.693-56.896 251.253 90.645-113.829 226.091-188.757 378.896-196.597-26.843 117.712 60.405 231.056 179.051 231.056 52.864 0 100.651-22.848 134.176-59.435 41.888 8.437 81.2 24.117 116.741 45.696-13.739-43.979-42.859-80.864-80.827-104.123 37.184 4.517 72.613 14.635 105.579 29.605-24.64-37.707-55.813-70.859-91.728-97.403z" />
<glyph unicode="sourceforge" glyph-name="sourceforge" d="M352 256c17.664 0 32-14.336 32-32v-64c0-17.664-14.336-32-32-32h-256c-17.664 0-32-14.336-32-32v-64c0-17.664 14.336-32 32-32h320c52.992 0 96 43.008 96 96v192c0 52.992-43.008 96-96 96h-192c-17.664 0-32 14.336-32 32v64c0 17.664 14.336 32 32 32h288v128h-352c-52.992 0-96-43.008-96-96v-192c0-52.992 43.008-96 96-96h192zM960 864c0 17.664-14.336 32-32 32h-256c-52.992 0-96-43.008-96-96v-160h-64v-128h64v-417.088c0-11.392 13.76-17.152 21.824-9.088l96.832 96.832c5.952 5.952 9.344 14.144 9.344 22.592v306.752h224c17.664 0 32 14.336 32 32v64c0 17.664-14.336 32-32 32h-224v128h224c17.664 0 32 14.336 32 32v64z" />
<glyph unicode="share" glyph-name="share" d="M601.935 690.743v0 0 0 0 0c23.373-30.83 60.393-50.743 102.065-50.743 70.692 0 128 57.308 128 128s-57.308 128-128 128c-70.692 0-128-57.308-128-128 0-5.286 0.32-10.498 0.943-15.616l-252.366-196.285c-19.823 12.602-43.347 19.901-68.577 19.901-70.692 0-128-57.308-128-128s57.308-128 128-128c25.229 0 48.754 7.299 68.577 19.901l252.366-196.285c-0.623-5.118-0.943-10.33-0.943-15.616 0-70.692 57.308-128 128-128s128 57.308 128 128c0 70.692-57.308 128-128 128-41.672 0-78.692-19.913-102.065-50.743l-233.464 181.583c9.902 18.172 15.529 39.009 15.529 61.16s-5.627 42.988-15.529 61.16l233.464 181.583zM192 448c0 35.346 28.654 64 64 64s64-28.654 64-64c0-35.346-28.654-64-64-64s-64 28.654-64 64v0 0 0 0zM640 768c0 35.346 28.654 64 64 64s64-28.654 64-64c0-35.346-28.654-64-64-64s-64 28.654-64 64v0 0 0 0zM640 128c0 35.346 28.654 64 64 64s64-28.654 64-64c0-35.346-28.654-64-64-64s-64 28.654-64 64v0 0 0 0z" />
<glyph unicode="search，magnifier" glyph-name="search" d="M761.351 512.099c0-173.541-140.722-314.263-314.263-314.263s-314.263 140.722-314.263 314.263c0 173.541 140.722 314.263 314.263 314.263s314.263-140.722 314.263-314.263v0zM831.187 512.099c0 212.11-171.989 384.099-384.099 384.099s-384.099-171.989-384.099-384.099c0-212.11 171.989-384.099 384.099-384.099s384.099 171.989 384.099 384.099v0zM716.204 288.246c-12.274 12.241-32.065 12.131-44.204-0.246s-12.030-32.333 0.244-44.574l234.518-234.317c12.274-12.241 32.065-12.131 44.204 0.246s12.030 32.333-0.244 44.574l-234.518 234.317z" />
<glyph unicode="menu-button" glyph-name="menu-button" d="M864 704c17.673 0 32 14.327 32 32s-14.327 32-32 32h-704c-17.673 0-32-14.327-32-32s14.327-32 32-32h704zM864 384c17.673 0 32 14.327 32 32s-14.327 32-32 32h-704c-17.673 0-32-14.327-32-32s14.327-32 32-32h704zM864 64c17.673 0 32 14.327 32 32s-14.327 32-32 32h-704c-17.673 0-32-14.327-32-32s14.327-32 32-32h704z" />
<glyph unicode="mega" glyph-name="mega" d="M768 204.8c0-7.040-5.76-12.8-12.8-12.8h-101.376c-7.104 0-13.824 5.76-13.824 12.8v225.856l-120.768-172.224c-4.352-3.072-10.176-3.072-14.464 0.064l-120.768 175.744v-229.44c0-7.040-5.76-12.8-12.8-12.8h-102.4c-7.040 0-12.8 5.76-12.8 12.8v486.4c0 7.040 5.76 12.8 12.8 12.8h77.824c2.56-0.832 4.928-1.6 7.552-2.496l156.358-253.504 163.962 253.568c2.176 1.6 4.736 2.432 7.424 2.432h73.28c7.040 0 12.8-5.76 12.8-12.8v-486.4zM513.466 895.987c-247.408 0-448-200.592-448-448s200.592-448 448-448c247.408 0 448 200.592 448 448s-200.592 448-448 448v0z" />
<glyph unicode="mailing-list" glyph-name="mailing-list" d="M529.067 768c84.821 0 153.6-68.779 153.6-153.6s-68.779-153.6-153.6-153.6c-84.821 0-153.6 68.779-153.6 153.6s68.779 153.6 153.6 153.6v0zM750.933 128h-477.867c-18.842 0-34.133 14.781-34.133 33.034v29.562c0 114.675 113.937 201.938 232.311 201.938h82.364c133.461 0 231.458-99.2 231.458-228.491v-3.009c0-18.253-15.292-33.034-34.133-33.034v0zM204.8 392.533c56.559 0 102.4 45.841 102.4 102.4s-45.841 102.4-102.4 102.4c-56.559 0-102.4-45.841-102.4-102.4s45.841-102.4 102.4-102.4v0zM238.933 358.4l-101.854-0.067c-75.742-0.067-137.079-59.937-137.079-133.752v-15.941c0-9.185 7.646-16.64 17.067-16.64h153.6v29.719c0 53.215 26.146 100.805 68.267 136.681v0zM819.2 392.533c-56.559 0-102.4 45.841-102.4 102.4s45.841 102.4 102.4 102.4c56.559 0 102.4-45.841 102.4-102.4s-45.841-102.4-102.4-102.4v0zM785.067 358.4l101.854-0.067c75.742-0.067 137.079-59.937 137.079-133.752v-15.941c0-9.185-7.646-16.64-17.067-16.64h-153.6v29.719c0 53.215-26.146 100.805-68.267 136.681v0z" />
<glyph unicode="language" glyph-name="language" d="M1024 416c0 265.097-214.903 480-480 480s-480-214.903-480-480c0-265.097 214.903-480 480-480s480 214.903 480 480zM128 416c0 229.75 186.25 416 416 416s416-186.25 416-416c0-229.75-186.25-416-416-416s-416 186.25-416 416zM512 255.785v128.215h-416v64h416v124.747c-76.741 5.205-152.899 23.242-227.118 51.58-29.713 11.345-56.495 23.518-79.956 35.734-14.295 7.443-24.461 13.35-30.106 16.942l34.36 53.994c4.133-2.63 12.708-7.612 25.302-14.169 21.353-11.118 45.905-22.278 73.229-32.71 66.956-25.565 135.375-41.974 204.289-46.997v226.88h64v-228.209c102.514 3.301 205.461 33.156 305.689 96.83l-2.869-1.625 31.491-55.619 2.869 1.625c-109.947-69.967-223.787-102.459-337.18-105.571v-123.432h416v-64h-416v-126.833c112.966-2.971 225.992-35.064 334.311-104.101l2.869-1.624-31.491-55.619-2.869 1.625c-98.609 62.751-200.74 92.205-302.82 95.364v-224.812h-64v223.408c-68.827-5.086-137.29-21.5-204.289-47.081-27.324-10.433-51.876-21.593-73.229-32.71-12.594-6.557-21.168-11.539-25.302-14.169l-34.36 53.994c5.644 3.592 15.811 9.499 30.106 16.942 23.462 12.216 50.243 24.389 79.956 35.734 74.263 28.355 150.469 46.397 227.118 51.668zM832 416c0 262.754-124.14 480-288 480s-288-217.246-288-480c0-262.754 124.14-480 288-480s288 217.246 288 480zM320 416c0 232.093 105.090 416 224 416s224-183.907 224-416c0-232.093-105.090-416-224-416s-224 183.907-224 416z" />
<glyph unicode="iso-repository" glyph-name="iso-repository" d="M611.513 437.216c-29.434 19.623-69.106 11.731-88.729-17.703-19.623-29.328-11.731-69.106 17.703-88.729 29.328-19.623 69.106-11.731 88.729 17.703 19.623 29.328 11.731 69.106-17.703 88.729zM500.673 7.579v0 0 0c40.16-8.136 81.186-9.717 121.471-4.872 85.376 10.176 167.36 48.896 230.464 114.304 8.96 9.344 17.6 19.2 25.792 29.632s15.744 21.12 22.72 32.064c55.552 87.68 71.488 191.104 50.56 287.232-18.304 84.096-64.896 162.56-137.856 219.904-72.896 57.344-160.128 84.096-246.208 82.048-18.728-0.479-37.231-3.195-55.616-6.475v102.584c0 17.664-14.336 32-32 32h-384c-17.664 0-32-14.336-32-32v-832c0-17.664 14.336-32 32-32h384c7.879 0 15.095 2.852 20.673 7.579zM512 71.552v131.241c47.175-16.456 98.954-13.605 144 7.018l53.632-115.264c-61.784-28.255-131.207-36.182-197.632-22.995v0 0 0zM512 274.958v218.525c43.989 25.63 100.829 23.894 143.232-9.432 55.296-43.456 64.96-123.648 21.888-179.072-40.132-50.634-110.976-62.192-165.12-30.021v0 0 0zM512 563.763v131.491c89.103 18.817 185.173 0.854 262.272-59.715 34.688-27.264 62.208-60.352 82.304-96.704 36.736-66.688 47.168-144.512 32.064-218.752l-124.544 25.216c14.336 69.12-9.28 143.616-68.48 190.144-53.953 42.423-123.428 50.181-183.616 28.32v0 0 0zM128 704v64h320v-64h-320zM128 576v64h320v-64h-320zM384 448v64h64v-64h-64z" />
<glyph unicode="irc" glyph-name="IRC" d="M512 768c-212.064 0-384-145.9-384-325.895 0-179.963 171.936-325.863 384-325.863 50.944 0 99.52 8.5 144.032 23.781l144.896-76.022-40.768 129.505c83.072 59.786 135.84 148.956 135.84 248.6 0 179.995-171.936 325.895-384 325.895zM532.571 320h-96l-20.571-96h-64l20.571 96h-84.571v64h98.286l27.429 128h-61.714v64h75.429l20.571 96h64l-20.571-96h96l20.571 96h64l-20.571-96h84.571v-64h-98.286l-27.429-128h61.714v-64h-75.429l-20.571-96h-64l20.571 96zM546.286 384h-96l27.429 128h96l-27.429-128z" />
<glyph unicode="facebook" glyph-name="facebook" d="M704 768v128h-162.909c-89.967 0-157.091-72.943-157.091-162.909v-157.091h-128v-128h128v-448h128v448h192v128h-192v128c0 0 0 64 64 64h128z" />
<glyph unicode="download" glyph-name="download" d="M320 448v384h384v-384h256l-448-448-448 448z" />
<glyph unicode="delete" glyph-name="delete" d="M511.763 400.459l-328.111-328.111c-12.497-12.497-32.758-12.497-45.255 0s-12.497 32.758 0 45.255l328.111 328.111-330.397 330.397c-12.497 12.497-12.497 32.758 0 45.255s32.758 12.497 45.255 0l330.397-330.397 330.634 330.634c12.497 12.497 32.758 12.497 45.255 0s12.497-32.758 0-45.255l-330.634-330.634 328.348-328.348c12.497-12.497 12.497-32.758 0-45.255s-32.758-12.497-45.255 0l-328.348 328.348z" />
<glyph unicode="baidu-cloud" glyph-name="baidu-cloud" d="M113.974 322.501c0 75.394 61.375 136.769 136.769 136.769 75.451 0 136.769-61.375 136.769-136.769 0-37.327-15.045-71.12-39.378-95.795-0.285-0.342-0.684-0.798-0.969-1.14-24.789-24.618-58.811-39.834-96.422-39.834-75.394 0-136.769 61.318-136.769 136.769v0zM514.194 754.862c75.394 0 136.769-61.318 136.769-136.769 0-75.394-61.375-136.769-136.769-136.769s-136.769 61.375-136.769 136.769c0 75.451 61.375 136.769 136.769 136.769v0zM967.013 265.514c31.457 0 56.987 25.53 56.987 56.987 0 138.251-112.492 250.743-250.743 250.743-4.445 0-8.605-1.083-12.993-1.311 2.792 15.045 4.673 30.374 4.673 46.159 0 138.308-112.492 250.743-250.743 250.743s-250.743-112.435-250.743-250.743c0-15.956 1.824-31.457 4.73-46.615-5.87 0.399-11.454 1.767-17.438 1.767-138.251 0-250.743-112.492-250.743-250.743s112.492-250.743 250.743-250.743c70.265 0 133.692 29.234 179.281 75.964l0.171-0.171c0 0 234.787 259.405 245.329 270.631 25.929 26.499 60.634 41.088 97.733 41.088 75.394 0 136.769-61.375 136.769-136.769 0-31.457 25.53-56.987 56.987-56.987v0zM960 192c-35.328 0-64-28.672-64-64s28.672-64 64-64c35.328 0 64 28.672 64 64s-28.672 64-64 64z" />
<glyph unicode="arrow-up，hold" glyph-name="arrow-up" d="M490.474 631.678c12.205 11.096 30.846 11.096 43.051 0l352-320c13.077-11.888 14.041-32.127 2.153-45.204s-32.127-14.041-45.204-2.153l-329.261 301.534-331.688-301.534c-13.077-11.888-33.315-10.924-45.204 2.153s-10.924 33.315 2.153 45.204l352 320z" />
<glyph unicode="arrow-right，forward" glyph-name="arrow-right" d="M695.678 426.474c11.096 12.205 11.096 30.846 0 43.051l-384 352c-11.888 13.077-32.127 14.041-45.204 2.153s-14.041-32.127-2.153-45.204l365.534-329.261-365.534-331.688c-11.888-13.077-10.924-33.315 2.153-45.204s33.315-10.924 45.204 2.153l384 352z" />
<glyph unicode="arrow-left，back" glyph-name="arrow-left" d="M264.322 426.474c-11.096 12.205-11.096 30.846 0 43.051l384 352c11.888 13.077 32.127 14.041 45.204 2.153s14.041-32.127 2.153-45.204l-365.534-329.261 365.534-331.688c11.888-13.077 10.924-33.315-2.153-45.204s-33.315-10.924-45.204 2.153l-384 352z" />
<glyph unicode="arrow-down，spread" glyph-name="arrow-down" d="M138.474 584.322l352-320c12.205-11.096 30.846-11.096 43.051 0l352 320c13.077 11.888 14.041 32.127 2.153 45.204s-32.127 14.041-45.204 2.153l-352-320h43.051l-352 320c-13.077 11.888-33.315 10.924-45.204-2.153s-10.924-33.315 2.153-45.204v0z" />
<glyph unicode="Sina-weibo" glyph-name="Sina-weibo" d="M822.995 576.806c-0.576-11.008-9.632-20.256-21.216-21.344-13.088-1.216-24.736 7.936-26.016 20.608 0 0 15.584 94.272-90.272 72.128-13.056-1.248-24.544 8.032-25.792 20.608-1.28 12.768 8.192 24 21.248 25.216 0 0 147.616 24.8 142.112-114.752 0.096-0.896 0.064-1.632-0.064-2.464zM953.325 550.038h-0.224c-3.904-12.736-14.368-23.296-30.176-24.768-18.912-1.792-35.328 11.456-37.152 29.824-1.6 15.904 3.616 34.272 3.616 34.272 1.312 6.88 13.184 50.784-21.568 110.272-60.768 80.288-148.832 69.664-178.208 66.048-13.408-1.664-30.336-9.888-30.336-9.888-19.040-1.792-35.776 11.904-37.6 30.176-1.536 15.296 7.744 29.312 21.792 34.624 0 0 0.256 0.576 0.768 0.704 1.024 0.288 1.952 1.44 3.104 1.664 14.368 4.096 65.664 12.608 117.664 5.824 93.056-12.064 226.432-75.104 188.32-278.752zM129.152 288.018c-8.558 109.351 113.416 208.168 272.455 220.726s294.929-65.92 303.488-175.271c8.558-109.351-113.416-208.168-272.455-220.726s-294.929 65.92-303.488 175.271v0 0zM712.328 472.839c0 0 34.19 58.98-6.766 101.839-50.763 53.12-174.155-6.733-174.155-6.733-47.134-15.311-34.615 6.96-27.98 44.866 0 44.672-14.611 120.29-140.128 75.618-125.419-44.866-233.090-202.188-233.090-202.188-74.886-104.525-64.949-185.291-64.949-185.291 0-172.86 185.596-240.289 340.727-238.864 148.692 1.36 348.278 53.444 408.945 188.236 60.667 135.019-49.553 188.43-84.626 195.746-34.975 7.089-17.978 26.771-17.978 26.771v0 0zM435.737 317.199c-15.891-6.284-33.617 1.17-39.593 16.646-5.976 15.51 2.036 33.192 17.96 39.476 15.891 6.284 33.617-1.17 39.593-16.646 5.976-15.51-2.070-33.192-17.96-39.476zM338.158 217.657c-37.59-2.908-69.972 19.487-72.375 50.005-2.37 30.518 26.139 57.626 63.729 60.534s69.972-19.454 72.375-50.005c2.37-30.518-26.173-57.626-63.729-60.534zM541.329 322.614c-15.824 69.058-99.115 112.845-186.046 97.77-86.897-15.075-144.55-83.263-128.726-152.321s99.115-112.812 186.046-97.737c86.897 15.042 144.55 83.23 128.726 152.288z" />
</font>
</defs>
</svg>
